<?xml version="1.0" encoding="UTF-8"?>
<svg id="Layer_2" data-name="Layer 2" xmlns="http://www.w3.org/2000/svg" viewBox="0 0 119.4 140.22">
  <defs>
    <style>
      .cls-1 {
        fill: #e2e2e2;
        stroke-width: 0px;
      }
    </style>
  </defs>
  <g id="Layer_1-2" data-name="Layer 1">
    <path class="cls-1" d="m37.97,140.2l2.25-29.99,2.25-44.68,1.43-43.96h-7.18l-6.67.1-6.36.1-23.69.72C.55,12.63.86,5.13.92,0c19.71.14,40.35.21,61.91.21l36.86-.1L119.4.01c-.69,9.75-1.03,17.24-1.03,22.49-12.39-.62-24.28-.92-35.64-.92h-7.91l-1.22,18.76-2.95,72.19-.2,12.1c-.07,4.99-.1,10.19-.1,15.59l-15.63-.21c-1.7,0-7.28.06-16.75.19Z"/>
  </g>
</svg>