<?xml version="1.0" encoding="utf-8"?>
<!-- Generator: Adobe Illustrator 27.9.0, SVG Export Plug-In . SVG Version: 6.00 Build 0)  -->
<svg version="1.1" id="Layer_1" xmlns="http://www.w3.org/2000/svg" xmlns:xlink="http://www.w3.org/1999/xlink" x="0px" y="0px"
	 viewBox="0 0 720 210.52" style="enable-background:new 0 0 720 210.52;" xml:space="preserve">
<style type="text/css">
	.st0{fill:#E2E2E2;}
</style>
<path class="st0" d="M58.85,187.98l2.25-29.99l2.25-44.68l1.43-43.96h-7.18l-6.67,0.1l-6.36,0.1l-23.69,0.72
	c0.55-9.86,0.86-17.36,0.92-22.49c19.71,0.14,40.35,0.21,61.91,0.21l36.86-0.1l19.71-0.1c-0.69,9.75-1.03,17.24-1.03,22.49
	c-12.39-0.62-24.28-0.92-35.64-0.92h-7.91l-1.22,18.76l-2.95,72.19l-0.2,12.1c-0.07,4.99-0.1,10.19-0.1,15.59l-15.63-0.21
	C73.9,187.78,68.32,187.85,58.85,187.98z"/>
<path class="st0" d="M191.83,164.67c-0.89,4.04-2.16,11.3-3.8,21.78c-7.4,1.57-13.63,2.64-18.69,3.18
	c-5.07,0.55-10.17,0.82-15.3,0.82c-8.97,0-17-0.89-24.09-2.67c-7.09-1.78-13.3-5.05-18.64-9.8c-5.34-4.75-9.28-10.59-11.81-17.49
	c-2.53-6.91-3.8-14.16-3.8-21.76c0-8.41,1.47-16.57,4.42-24.47c2.94-7.9,7.07-14.37,12.38-19.4c5.3-5.03,11.35-8.59,18.13-10.67
	s13.87-3.13,21.26-3.13c6.98,0,13.63,0.87,19.93,2.61c6.3,1.74,11.59,4.6,15.87,8.56c4.28,3.97,7.56,8.73,9.86,14.3
	c2.29,5.57,3.44,11.77,3.44,18.61c0,3.21-0.34,6.53-1.03,9.94l-75.29,0.1c-0.14,2.53-0.21,4.55-0.21,6.06
	c0,4.59,0.79,8.8,2.36,12.63c1.57,3.84,3.87,7.09,6.88,9.76c3.01,2.67,6.61,4.64,10.79,5.91c4.18,1.27,8.28,1.9,12.33,1.9
	c4.72,0,9.84-0.51,15.36-1.54C177.67,168.88,184.23,167.13,191.83,164.67z M125.47,123.17l48.07,0.1c0-3.27-0.1-5.69-0.31-7.26
	s-0.67-3.36-1.39-5.37c-0.72-2.01-1.7-3.78-2.93-5.32c-1.23-1.53-2.67-2.81-4.31-3.84c-1.64-1.02-3.54-1.81-5.7-2.35
	c-2.16-0.55-4.47-0.82-6.93-0.82c-2.88,0-5.67,0.44-8.37,1.33c-2.71,0.89-5.19,2.18-7.45,3.89c-2.26,1.71-4.09,3.61-5.5,5.73
	c-1.4,2.11-2.45,4.14-3.13,6.09C126.84,117.29,126.16,119.9,125.47,123.17z"/>
<path class="st0" d="M288.77,164.26c-0.34,2.81-0.86,5.99-1.54,9.55c-0.69,3.56-1.4,7.98-2.16,13.25
	c-9.79,2.26-19.45,3.39-28.97,3.39c-5.55,0-10.89-0.51-16.02-1.54c-5.14-1.03-9.91-2.86-14.33-5.49c-4.42-2.64-8.3-6.11-11.66-10.43
	c-3.36-4.31-5.87-9.53-7.55-15.66c-1.68-6.13-2.52-12.45-2.52-18.95c0-8.63,1.39-16.91,4.16-24.86c2.77-7.94,6.83-14.43,12.17-19.46
	c5.34-5.03,11.28-8.46,17.82-10.27c6.54-1.81,13.82-2.72,21.83-2.72c4.45,0,9.04,0.26,13.76,0.77c4.72,0.51,10.31,1.56,16.74,3.13
	l1.54,22.49c-10.18-3.49-19.07-5.24-26.66-5.24c-4.65,0-9.04,0.79-13.18,2.36c-4.14,1.58-7.69,4.06-10.66,7.45
	c-2.97,3.39-5.09,7.31-6.36,11.76c-1.26,4.45-1.9,9.01-1.9,13.66c0,6.51,1.01,12.14,3.02,16.9c2.02,4.76,5.49,8.44,10.41,11.04
	c4.92,2.6,10.53,3.9,16.81,3.9c3.08,0,6.82-0.39,11.23-1.18C279.19,167.32,283.85,166.04,288.77,164.26z"/>
<path class="st0" d="M291.47,187.98l2.45-33.38l2.45-47.76l1.43-59.06c6.03,0.14,11.04,0.21,15.01,0.21
	c5.21,0,10.18-0.07,14.91-0.21l-1.86,24.45c-0.41,6.03-0.96,15.72-1.65,29.07c2.19-3.29,4.02-5.75,5.5-7.4
	c1.47-1.64,3.12-3.17,4.93-4.57c1.81-1.4,3.68-2.58,5.6-3.54c1.92-0.96,4.16-1.81,6.73-2.57c2.57-0.75,5.43-1.34,8.58-1.75
	s6.37-0.62,9.66-0.62c5.68,0,11.14,0.65,16.38,1.95c5.24,1.3,9.76,3.49,13.56,6.57s6.4,6.69,7.81,10.84c1.4,4.14,2.1,8.47,2.1,12.99
	c0,2.94-0.17,7.53-0.52,13.76l-2.49,44.89c-0.21,4.66-0.31,10.03-0.31,16.13c-5.54-0.14-10.43-0.21-14.67-0.21
	c-4.58,0-9.82,0.07-15.7,0.21c0.95-8.08,1.88-19.1,2.8-33.07c0.91-13.97,1.37-23.9,1.37-29.79c0-5.41-0.87-9.64-2.61-12.69
	c-1.74-3.04-4.31-5.3-7.69-6.78c-3.38-1.47-7.09-2.21-11.12-2.21c-5.2,0-9.78,0.92-13.74,2.77c-3.83,1.78-7.04,4.45-9.64,8.01
	c-2.12,2.94-3.9,7.16-5.33,12.63c-1.5,5.75-2.6,14.65-3.28,26.71c-0.35,5.82-0.73,17.29-1.15,34.41
	c-5.42-0.14-10.08-0.21-13.98-0.21C303.29,187.78,298.12,187.85,291.47,187.98z"/>
<path class="st0" d="M425.86,149.87c4.29-12.78,7.57-23.08,9.85-30.92c3.87-13.09,9.12-31.9,15.76-56.44
	c4.91-18.12,8.26-30.94,10.03-38.47l2.19-9.3c19.09,4.64,35.79,8.65,50.12,12.03l28,6.5l16.71,3.84
	c-3.08,9.76-5.17,16.86-6.29,21.31l-14.18-3.87l-5.77-1.47l-7.8-1.84l-15.2-3.58l-20.72-4.78l-9.68,35.6l16.93,4.31
	c12.93,3.05,21.24,4.98,24.92,5.77l13.65,3.01c-2.29,7.62-4.26,14.61-5.9,20.98c-11.53-3-20.73-5.31-27.59-6.93
	c-8.66-2.04-18.06-4.12-28.18-6.22l-11.52,43.93l-2.22,8.97l-1.2,5.1l-15.26-3.81C441.72,153.4,436.17,152.16,425.86,149.87z"/>
<path class="st0" d="M539.27,195.78c1.04-10.27,1.77-18.86,2.19-25.78c0.7-10.96,1.3-23.59,1.83-37.9
	c0.52-14.31,0.89-27.9,1.1-40.78c6.67,0.14,11.67,0.21,15.01,0.21c3.06,0,8.03-0.07,14.9-0.21c-0.93,11.91-1.67,23.28-2.23,34.1
	c-0.56,10.82-0.98,23.21-1.24,37.18c-0.26,13.97-0.4,25.03-0.4,33.18c-6.24-0.14-11.24-0.21-15.01-0.21
	C551.85,195.58,546.47,195.65,539.27,195.78z M513.92,75.69c2.73-6.51,4.76-11.53,6.08-15.05l1.15-3.08
	c5.79,2.32,10.51,4.16,14.16,5.53c5,1.87,9.67,3.55,14.02,5.03c-0.79,1.53-1.61,3.31-2.44,5.34l-5.27,12.61
	c-4.83-1.95-9.29-3.7-13.39-5.24C524.12,79.29,519.35,77.58,513.92,75.69z"/>
<path class="st0" d="M579.31,180.78c15.02-16.89,30.29-34.47,45.8-52.75l-8.86-14.54c-2.88-4.74-6.72-10.81-11.52-18.21
	l-11.96-18.54c7.51,0.41,13.53,0.7,18.04,0.86c5.95,0.22,11.25,0.34,15.9,0.37c3,5,6.43,10.48,10.31,16.44l7.31,11.63l23.04-26.59
	c4.86,0.32,10.06,0.57,15.6,0.77c5.2,0.19,10.58,0.32,16.13,0.38l-17.92,20.6c-4.06,4.76-11.66,13.75-22.78,26.96l15.2,24.73
	l20.56,32.06c-5.89-0.35-11.34-0.62-16.34-0.8c-6.03-0.22-11.9-0.36-17.59-0.44c-4.01-7.06-8.02-13.56-12.04-19.51
	c-4.02-5.95-6.98-10.57-8.89-13.87c-2.88,3.52-6.72,7.98-11.51,13.38c-4.79,5.4-9.96,11.49-15.51,18.25
	c-5.75-0.35-10.95-0.6-15.61-0.77C591.48,181.02,585.69,180.88,579.31,180.78z"/>
</svg>
