<svg id="visual" viewBox="0 0 900 600" width="900" height="600" xmlns="http://www.w3.org/2000/svg" xmlns:xlink="http://www.w3.org/1999/xlink" version="1.1"><path d="M0 223L82 175L164 175L245 259L327 139L409 157L491 97L573 79L655 97L736 259L818 157L900 103L900 0L818 0L736 0L655 0L573 0L491 0L409 0L327 0L245 0L164 0L82 0L0 0Z" fill="#00cc8e"></path><path d="M0 307L82 367L164 361L245 433L327 337L409 289L491 325L573 325L655 319L736 373L818 325L900 403L900 101L818 155L736 257L655 95L573 77L491 95L409 155L327 137L245 257L164 173L82 173L0 221Z" fill="#00b98a"></path><path d="M0 403L82 415L164 397L245 469L327 415L409 349L491 379L573 385L655 355L736 475L818 415L900 439L900 401L818 323L736 371L655 317L573 323L491 323L409 287L327 335L245 431L164 359L82 365L0 305Z" fill="#00a784"></path><path d="M0 493L82 541L164 529L245 553L327 487L409 511L491 481L573 475L655 529L736 547L818 481L900 553L900 437L818 413L736 473L655 353L573 383L491 377L409 347L327 413L245 467L164 395L82 413L0 401Z" fill="#00957c"></path><path d="M0 601L82 601L164 601L245 601L327 601L409 601L491 601L573 601L655 601L736 601L818 601L900 601L900 551L818 479L736 545L655 527L573 473L491 479L409 509L327 485L245 551L164 527L82 539L0 491Z" fill="#038373"></path></svg>